<svg xmlns="http://www.w3.org/2000/svg" viewBox="0 0 512 512" width="512" height="512" role="img" aria-label="Bean Bros Brewing Co.">
  <title>Bean Bros Brewing Co.</title>
  <g transform="translate(76.80,142.72) scale(0.160000) translate(0.000000,1416.000000) scale(0.100000,-0.100000)" fill="#1a1612" stroke="none">
    <path d="M6871 14131 c-21 -49 -35 -51 -414 -51 -373 0 -402 -3 -470 -48 -35
-23 -53 -27 -146 -32 -101 -5 -110 -8 -161 -40 -54 -35 -54 -35 -200 -40 -146
-5 -146 -5 -200 -40 -51 -32 -60 -35 -160 -40 -100 -5 -109 -8 -160 -40 -51
-32 -60 -35 -160 -40 -100 -5 -109 -8 -160 -40 -42 -27 -68 -36 -120 -41 -53
-4 -79 -13 -126 -42 -33 -21 -66 -37 -74 -37 -8 0 -41 -16 -73 -36 -46 -28
-75 -38 -127 -44 -52 -6 -81 -16 -127 -44 -32 -20 -65 -36 -73 -36 -8 0 -44
-18 -80 -40 -36 -22 -72 -40 -80 -40 -8 0 -44 -18 -80 -40 -36 -22 -72 -40
-80 -40 -8 0 -44 -18 -80 -40 -36 -22 -72 -40 -80 -40 -8 0 -44 -18 -80 -40
-36 -22 -72 -40 -81 -40 -8 0 -37 -14 -65 -32 -27 -17 -71 -39 -99 -49 -27
-11 -70 -38 -95 -62 -66 -64 -98 -86 -143 -98 -30 -8 -66 -36 -142 -109 -103
-99 -135 -121 -189 -134 -19 -5 -82 -59 -175 -149 -81 -79 -161 -148 -179
-155 -17 -7 -45 -17 -60 -23 -52 -19 -439 -418 -451 -465 -13 -47 -34 -69 -82
-85 -49 -17 -65 -34 -80 -86 -10 -37 -34 -68 -120 -158 -91 -95 -110 -121
-120 -160 -10 -40 -30 -66 -120 -160 -78 -82 -110 -123 -118 -151 -6 -22 -27
-64 -46 -94 -19 -30 -35 -61 -35 -69 0 -8 -18 -44 -39 -80 -22 -36 -42 -80
-46 -98 -4 -19 -33 -61 -75 -107 -43 -47 -73 -90 -80 -113 -5 -21 -26 -63 -45
-93 -19 -30 -35 -61 -35 -70 0 -8 -18 -44 -40 -80 -22 -36 -40 -72 -40 -80 0
-8 -17 -42 -37 -75 -31 -49 -39 -73 -44 -130 -5 -58 -12 -79 -43 -124 -20 -29
-36 -60 -36 -69 0 -9 -17 -44 -37 -77 -38 -60 -38 -60 -43 -210 -5 -150 -5
-150 -40 -198 -34 -47 -35 -52 -40 -160 -5 -108 -7 -114 -40 -160 -34 -47 -35
-52 -40 -160 -5 -109 -6 -113 -40 -161 -35 -48 -35 -48 -40 -396 -5 -372 -5
-371 -57 -391 -36 -14 -36 -1604 0 -1618 50 -19 52 -26 57 -311 5 -268 5 -268
40 -316 35 -49 35 -49 40 -201 5 -151 5 -151 39 -200 29 -40 35 -59 40 -120 6
-61 12 -79 41 -120 35 -48 35 -48 38 -223 3 -219 0 -206 78 -292 75 -82 84
-100 84 -171 0 -43 7 -63 40 -117 22 -36 40 -72 40 -80 0 -8 18 -44 40 -80 22
-36 40 -72 40 -81 0 -10 16 -41 37 -70 28 -42 37 -66 40 -109 6 -89 10 -96 83
-176 42 -46 71 -88 75 -107 4 -18 24 -61 45 -97 21 -36 41 -77 44 -93 4 -15
37 -61 75 -102 50 -56 72 -88 80 -120 8 -33 30 -65 80 -120 52 -57 72 -87 81
-122 10 -41 33 -69 199 -237 163 -166 189 -197 200 -238 15 -54 31 -71 83 -87
42 -14 74 -48 83 -90 8 -37 27 -53 90 -76 43 -16 89 -57 315 -281 223 -221
271 -264 306 -273 46 -12 74 -31 150 -102 30 -28 67 -52 91 -58 45 -12 77 -34
143 -98 25 -24 68 -51 95 -62 28 -10 72 -32 99 -49 28 -18 57 -32 66 -32 9 0
38 -14 64 -31 27 -17 72 -39 100 -49 31 -12 77 -43 117 -80 76 -68 101 -80
167 -80 55 0 84 -16 163 -88 65 -59 92 -72 157 -72 36 0 60 -8 105 -36 46 -28
75 -38 127 -44 52 -6 81 -16 127 -44 32 -20 65 -36 73 -36 8 0 42 -17 75 -37
57 -36 66 -38 166 -43 98 -5 109 -8 158 -39 41 -27 67 -35 120 -40 53 -5 78
-14 121 -41 54 -35 54 -35 200 -40 145 -5 146 -5 199 -39 41 -27 67 -35 120
-40 53 -5 78 -14 121 -41 54 -35 54 -35 320 -40 267 -5 267 -5 307 -32 63 -41
104 -48 310 -48 209 0 234 -5 254 -51 11 -29 11 -29 969 -29 958 0 958 0 969
29 20 46 45 51 254 51 206 0 247 7 310 48 40 27 40 27 306 32 266 5 266 5 326
42 33 21 67 38 75 38 8 0 42 17 75 37 57 35 66 38 165 43 99 5 108 8 165 43
33 20 67 37 75 37 8 0 42 17 75 37 57 35 66 38 165 43 99 5 108 8 165 43 33
20 67 37 75 37 8 0 41 16 73 36 46 28 75 38 128 44 52 6 81 15 118 39 27 18
66 37 87 43 20 5 60 31 88 57 76 70 104 90 149 102 24 6 61 30 91 58 75 70
104 90 148 101 24 7 64 34 106 72 63 57 85 71 158 98 18 6 160 141 357 338
300 301 327 331 337 374 9 36 29 65 81 123 50 55 72 87 80 120 8 32 30 64 80
119 42 47 72 90 79 113 5 21 26 63 45 93 29 44 35 64 35 106 0 72 9 90 84 172
77 84 75 78 78 252 3 135 3 135 38 183 29 41 36 59 41 120 5 61 12 80 43 126
36 53 36 53 36 430 0 376 0 376 -40 441 -22 36 -40 72 -40 81 0 10 -17 41 -37
70 -38 54 -38 54 -41 189 -3 174 -1 168 -78 252 -75 82 -84 100 -84 172 0 42
-6 62 -35 106 -19 30 -40 73 -46 94 -8 31 -44 74 -158 191 -131 134 -149 156
-160 200 -11 45 -28 66 -178 217 -91 92 -179 172 -195 177 -15 6 -43 16 -60
23 -20 7 -110 87 -218 194 -148 145 -194 184 -225 193 -22 6 -65 27 -95 46
-30 19 -61 35 -70 35 -9 0 -38 14 -64 31 -27 17 -72 39 -100 50 -31 11 -79 44
-123 83 -73 65 -81 69 -180 79 -24 3 -66 20 -100 41 -32 20 -65 36 -73 36 -8
0 -44 18 -79 40 -36 21 -77 42 -92 45 -83 18 -83 132 0 150 15 3 56 24 92 45
35 22 71 40 79 40 9 0 40 16 70 35 30 19 72 40 93 45 21 6 64 35 100 67 89 80
103 87 179 94 46 4 78 13 93 25 13 10 51 42 84 71 36 31 78 57 102 63 26 7 62
30 93 59 76 70 104 90 149 102 32 8 71 41 187 153 116 113 157 147 196 161 66
25 79 38 95 92 10 37 34 68 120 158 89 93 110 121 120 159 8 33 29 65 80 121
50 55 72 87 80 120 8 32 30 64 79 119 41 45 73 90 79 111 5 20 25 59 43 88 26
41 34 65 39 122 5 59 12 79 43 124 20 29 36 60 36 69 0 9 17 44 38 77 37 60
37 60 42 290 5 230 5 230 43 284 37 53 37 53 37 311 0 258 0 258 -37 311 -38
54 -38 54 -43 284 -5 230 -5 230 -42 290 -21 33 -38 68 -38 77 0 9 -16 40 -36
69 -31 45 -38 66 -43 124 -5 57 -13 81 -44 130 -20 33 -37 67 -37 75 0 8 -18
44 -40 80 -22 36 -40 72 -40 80 0 9 -16 40 -35 70 -19 30 -40 72 -45 93 -7 23
-37 66 -79 113 -52 57 -72 86 -80 122 -17 67 -490 544 -558 561 -46 12 -78 46
-88 90 -8 36 -27 53 -86 75 -26 9 -76 44 -117 81 -44 39 -86 68 -109 74 -21 6
-55 22 -75 36 -20 13 -61 34 -90 45 -35 13 -80 43 -126 85 -46 41 -86 68 -112
75 -23 6 -66 33 -101 63 -33 29 -71 60 -84 71 -14 11 -49 21 -93 26 -55 6 -83
15 -129 44 -32 20 -65 36 -73 36 -8 0 -44 18 -80 40 -36 22 -72 40 -80 40 -8
0 -41 16 -74 37 -47 29 -73 38 -126 42 -52 5 -78 14 -119 40 -41 27 -67 35
-120 40 -53 5 -78 14 -121 41 -51 32 -60 35 -160 40 -100 5 -109 8 -160 40
-51 32 -60 35 -161 40 -93 5 -111 9 -146 32 -66 44 -101 48 -390 48 -294 0
-314 3 -334 51 -11 29 -11 29 -1049 29 -1038 0 -1038 0 -1049 -29z m1324 -546
c60 -25 189 -162 203 -216 6 -25 26 -65 44 -90 31 -42 33 -49 38 -156 5 -108
6 -113 40 -160 33 -46 35 -52 40 -160 5 -108 6 -113 40 -160 35 -48 35 -48 40
-320 5 -271 5 -271 40 -320 35 -48 35 -48 40 -1240 5 -1191 5 -1191 40 -1240
35 -48 35 -48 35 -2603 0 -2555 0 -2555 -35 -2603 -35 -49 -35 -49 -40 -1120
-5 -1072 -5 -1072 -40 -1120 -35 -49 -35 -49 -40 -320 -5 -272 -5 -272 -40
-320 -29 -41 -36 -59 -41 -120 -5 -61 -12 -80 -43 -126 -35 -52 -36 -55 -36
-146 0 -125 -4 -133 -135 -263 -187 -185 -257 -191 -413 -35 -63 62 -81 87
-90 124 -6 25 -26 65 -44 90 -31 42 -33 49 -38 154 -5 106 -6 112 -42 170 -21
33 -38 68 -38 77 0 9 -17 40 -37 69 -38 54 -38 54 -43 326 -5 271 -5 271 -40
320 -33 46 -35 52 -40 160 -5 108 -6 113 -40 160 -35 48 -35 48 -40 480 -5
431 -5 431 -40 480 -35 48 -35 48 -40 640 -5 591 -5 591 -40 640 -35 48 -35
48 -40 480 -5 431 -5 431 -40 480 -35 48 -35 48 -35 1883 0 1835 0 1835 35
1883 35 49 35 49 40 440 5 392 5 392 40 440 35 49 35 49 40 520 5 472 5 472
40 520 35 49 35 49 40 480 5 432 5 432 40 480 34 47 35 52 40 160 5 108 7 114
40 160 35 49 35 49 40 240 5 192 5 192 43 246 20 29 37 60 37 69 0 9 18 45 39
81 22 36 42 82 46 101 9 42 221 261 276 285 44 18 110 19 154 0z M14151 14131 c-21 -50 -27 -51 -534 -51 -500 0 -520 -2 -590 -48 -38
-25 -49 -27 -186 -32 -145 -5 -146 -5 -206 -40 -33 -20 -73 -43 -90 -51 -57
-28 -47 -49 80 -171 139 -134 130 -129 217 -138 79 -9 103 -25 120 -81 13 -46
29 -60 89 -83 26 -9 76 -44 117 -81 44 -39 86 -68 109 -74 21 -6 55 -22 75
-36 20 -13 63 -34 95 -46 89 -33 454 -399 472 -474 16 -62 96 -147 155 -163
51 -14 74 -37 87 -84 6 -25 34 -65 78 -114 50 -55 72 -87 80 -119 8 -33 30
-65 81 -121 42 -46 71 -88 75 -107 4 -18 24 -61 45 -97 21 -36 41 -77 44 -93
4 -15 36 -60 72 -99 81 -88 84 -96 84 -211 0 -90 1 -94 40 -157 22 -36 40 -72
40 -81 0 -10 17 -41 38 -70 37 -54 37 -54 42 -286 5 -231 5 -231 40 -280 35
-48 35 -48 35 -523 0 -475 0 -475 -35 -523 -35 -49 -35 -49 -40 -200 -6 -152
-6 -152 -43 -206 -20 -29 -37 -60 -37 -70 0 -9 -18 -45 -40 -81 -39 -63 -40
-67 -40 -157 0 -115 -3 -123 -84 -211 -49 -53 -69 -84 -77 -118 -10 -39 -30
-66 -120 -159 -92 -96 -110 -120 -120 -162 -11 -43 -31 -67 -200 -238 -153
-156 -189 -198 -198 -231 -13 -49 -36 -71 -87 -86 -29 -7 -74 -45 -184 -153
-124 -120 -155 -146 -204 -164 -32 -12 -74 -33 -94 -46 -20 -14 -54 -30 -75
-36 -46 -12 -125 -81 -143 -126 -20 -47 -5 -75 84 -166 93 -95 98 -98 184
-107 79 -9 103 -25 120 -81 14 -47 29 -60 93 -84 71 -25 849 -799 860 -855 4
-19 24 -64 45 -100 21 -36 41 -77 44 -93 4 -15 36 -60 72 -99 75 -82 84 -100
84 -171 0 -43 7 -63 40 -117 22 -36 40 -72 40 -81 0 -10 17 -41 37 -70 37 -54
37 -54 43 -206 5 -151 5 -151 40 -200 35 -48 35 -48 35 -683 0 -635 0 -635
-35 -683 -35 -49 -35 -49 -40 -200 -6 -152 -6 -152 -43 -206 -20 -29 -37 -60
-37 -70 0 -9 -18 -45 -40 -81 -39 -63 -40 -67 -40 -157 0 -115 -3 -123 -84
-211 -36 -39 -68 -84 -72 -99 -3 -16 -23 -57 -44 -93 -21 -36 -41 -79 -45 -97
-4 -19 -33 -61 -75 -107 -52 -57 -73 -88 -81 -122 -10 -39 -31 -66 -120 -159
-80 -84 -110 -122 -118 -152 -13 -46 -34 -68 -82 -84 -46 -16 -67 -35 -74 -70
-10 -44 -42 -78 -88 -90 -35 -9 -77 -45 -262 -229 -213 -210 -249 -240 -307
-254 -15 -3 -60 -35 -100 -71 -46 -42 -91 -72 -126 -85 -29 -11 -70 -32 -90
-45 -20 -14 -54 -30 -75 -36 -23 -6 -65 -35 -109 -74 -41 -37 -91 -72 -117
-81 -75 -28 -86 -44 -86 -123 0 -76 15 -104 63 -116 15 -3 54 -23 87 -43 60
-37 60 -37 446 -42 386 -5 386 -5 426 -32 66 -44 100 -48 390 -48 294 0 314
-3 334 -51 11 -29 11 -29 729 -29 718 0 718 0 729 29 20 47 43 51 294 51 248
0 285 5 350 48 40 27 40 27 426 32 387 5 387 5 441 40 43 27 68 36 121 41 53
5 79 13 120 40 53 34 54 34 199 39 146 5 146 5 200 40 43 27 68 36 121 41 53
5 79 13 120 40 49 31 60 34 159 39 100 5 109 8 160 40 43 27 68 36 121 41 53
5 79 13 120 40 42 26 67 35 120 40 53 5 79 13 120 40 41 26 67 35 119 40 53 4
79 13 126 42 33 21 66 37 74 37 8 0 44 18 80 40 36 22 72 40 80 40 8 0 44 18
80 40 36 22 72 40 80 40 9 0 40 16 70 35 30 19 72 40 93 45 22 7 66 37 109 75
45 41 91 72 123 84 29 11 74 33 101 50 26 17 55 31 64 31 9 0 40 16 70 35 30
19 73 40 94 46 31 8 74 44 185 153 81 78 161 147 179 154 17 7 45 17 60 22 16
6 211 194 434 418 383 383 408 410 419 456 10 41 28 65 120 161 89 93 110 121
120 159 8 33 29 65 80 121 77 84 77 84 82 215 3 91 4 97 40 149 20 29 37 60
37 70 0 9 18 45 40 81 22 36 40 72 40 80 0 8 17 42 38 75 37 60 37 60 42 210
5 150 5 150 40 199 35 48 35 48 40 198 5 142 6 151 29 169 13 10 29 19 37 19
10 0 14 14 14 50 0 36 -4 50 -14 50 -8 0 -24 9 -37 19 -23 19 -24 24 -29 209
-5 190 -5 190 -40 238 -34 48 -35 52 -40 161 -5 107 -6 113 -39 160 -27 37
-35 60 -38 103 -6 88 -10 97 -79 172 -75 82 -84 100 -84 169 0 63 -8 78 -85
161 -47 51 -66 80 -74 115 -11 44 -34 69 -258 295 -146 146 -259 252 -277 258
-73 27 -95 41 -158 98 -38 34 -80 65 -95 68 -53 13 -87 37 -186 133 -120 116
-134 139 -112 181 19 36 76 77 130 91 32 9 76 47 225 193 152 150 194 186 235
201 63 23 82 39 90 76 9 42 41 76 83 90 52 16 68 33 83 86 10 37 34 68 120
158 89 93 110 121 120 159 8 33 29 65 80 121 77 84 77 84 81 215 3 90 5 97 38
143 29 41 35 59 41 120 5 61 11 80 40 120 34 49 34 49 39 200 6 152 6 152 43
206 37 53 37 53 37 271 0 218 0 218 -37 271 -38 54 -38 54 -43 246 -5 191 -5
191 -39 240 -29 40 -35 59 -40 120 -6 61 -12 79 -41 120 -33 46 -35 53 -38
143 -4 130 -4 131 -78 212 -75 82 -84 100 -84 169 0 63 -8 78 -86 162 -38 41
-65 80 -69 100 -4 18 -24 61 -45 97 -21 36 -41 78 -44 94 -4 17 -50 73 -115
141 -92 96 -110 120 -120 161 -17 69 -569 625 -638 643 -46 12 -78 46 -88 90
-8 36 -27 53 -86 75 -26 9 -76 44 -118 81 -39 36 -84 68 -99 71 -52 13 -85 36
-187 134 -77 75 -112 101 -143 110 -25 6 -67 32 -103 63 -33 29 -71 60 -84 71
-14 11 -49 21 -93 26 -55 6 -83 15 -129 44 -32 20 -65 36 -73 36 -8 0 -44 18
-80 40 -36 22 -72 40 -80 40 -8 0 -44 18 -80 40 -36 22 -72 40 -80 40 -8 0
-41 16 -73 36 -46 28 -75 38 -127 44 -52 6 -81 16 -127 44 -32 20 -65 36 -73
36 -8 0 -41 16 -74 37 -47 29 -73 38 -126 42 -52 5 -78 14 -120 41 -51 32 -60
35 -160 40 -100 5 -109 8 -160 40 -51 32 -60 35 -160 40 -100 5 -109 8 -160
40 -54 35 -54 35 -200 40 -146 5 -146 5 -200 40 -54 35 -54 35 -200 40 -138 5
-149 7 -187 32 -70 46 -90 48 -590 48 -507 0 -513 1 -534 51 -11 29 -11 29
-889 29 -878 0 -878 0 -889 -29z"/>
  </g>
</svg>
